<?xml version="1.0"?>
<svg version="1.1" xmlns="http://www.w3.org/2000/svg" width="93px" height="36px" style=""><path fill="#ef45f5" d="M31.516,19.809q-0.135,0-2.889-0.432q-4.563,2.592-10.4625,6.642t-9.5445,7.479q4.131-0.459,8.397-0.837q0.486-0.027,1.404-0.027q3.375,0,5.319,0.648t1.944,1.728q0,0.648-0.783,1.431q-1.026,0.945-1.404,0.945q-0.135,0-0.135-0.2295t0.3105-0.513t0.3105-0.5265q0-0.837-2.511-1.539q-2.619-0.756-4.914-0.756t-5.3325,0.4455t-4.7925,0.4455l-0.189,0q-0.432,0.378-0.54,0.378q-0.054,0-0.054-0.0945t0.162-0.3645q-0.999-0.054-0.999-0.567q0-0.405,0.432-0.837t0.756-0.432q0.054,0,0.108,0.054q0.135,0.216,1.161,0.378q6.831-7.128,19.575-14.121l-0.81-0.162q-1.917-0.432-4.941-0.432t-5.265,0.81q-0.486,0.108-1.458,0.594q-1.566,0.783-1.566,1.863q0,0.162,0.0675,0.3915t-0.0135,0.3645q-0.108,0.162-0.3645,0.162t-0.486-0.378t-0.2295-0.81t0.135-0.891q0.513-1.728,3.321-2.538q1.431-0.405,4.7925-0.405t6.6555,0.594q0.405,0.027,1.35,0.243l1.485-0.81q0.216-0.108,0.945-0.108t0.729,0.27q0,0.108-0.243,0.189q-0.108,0.081-1.377,0.783q1.215,0.081,1.4985,0.081t0.513-0.135t0.162-0.405t0.0405-0.27q0.162,0,0.3915,0.3645t0.2295,0.6615q0,0.675-0.891,0.675z M29.52259,34.551q-0.297,0-0.54-0.081q-1.728-0.486-1.728-1.944q0-1.89,2.376-4.374t4.266-2.484q0.621,0,1.0125,0.3375t0.3915,0.8235q0,1.512-2.2815,2.889t-3.7125,1.377q-0.216,0-0.378-0.054q-0.405,0.729-0.405,1.539q0,1.404,1.3365,1.404t3.4695-1.809q1.647-1.323,2.808-2.808q0.243-0.324,0.4185-0.324t0.1755,0.162t-0.216,0.459q-1.458,1.917-3.51,3.402t-3.483,1.485z M34.62559,26.775q0-0.324-0.6885-0.324t-1.9575,1.053q-1.701,1.404-2.646,2.943q0.162,0.054,0.351,0.054q1.026,0,2.7405-1.0935t2.1465-2.3895q0.054-0.135,0.054-0.243z M40.62418,25.668q0.729,0,0.729,0.567q0,0.162-0.081,0.324q-2.43,3.375-2.916,5.103q6.291-6.291,7.641-6.291q0.135-0.027,0.243-0.027q0.756,0,0.756,0.675q0,0.135-0.054,0.27t-1.08,1.458q-1.188,1.404-2.0115,2.7t-0.8235,2.16t0.378,0.864q1.188,0,4.131-3.267q0.054-0.054,0.189-0.243q0.405-0.486,0.486-0.486t0.081,0.27t-0.378,0.702q-3.348,3.807-4.752,3.807q-1.323,0-1.323-1.458t1.08-3.348l1.728-2.808q-1.836,1.35-3.267,2.9565t-2.6055,3.1185t-1.3635,1.512q-0.405,0-0.6345-0.3375t-0.2295-0.837t0.351-1.3365t0.891-2.025l-1.62,1.701q-0.594,0.594-0.7425,0.594t-0.1485-0.1755t0.216-0.3915q0.999-0.999,1.728-1.917q0.702-0.918,2.889-3.51q0.243-0.324,0.513-0.324z M54.97927,23.4405q0.3645,0.2565,0.3645,0.6075t-0.3375,0.6075t-0.7425,0.2565t-0.7425-0.297t-0.3375-0.675q0-0.756,1.026-0.756q0.405,0,0.7695,0.2565z M49.32277,34.497q-1.377,0-1.377-1.782q0-1.458,1.593-4.0365t2.565-2.6055q0.27,0,0.6075,0.216t0.3375,0.432q-0.135,0.189-0.324,0.4185t-0.405,0.4995t-0.594,0.7695t-0.729,0.9585q-2.025,2.619-2.025,3.6045t0.675,0.9855q0.567,0,1.539-0.621q2.268-1.404,3.591-3.078q0.486-0.621,0.6615-0.621t0.1755,0.216t-0.621,0.864t-0.9855,1.026t-0.4995,0.4995t-0.4995,0.459t-0.5535,0.4725t-0.54,0.405t-0.621,0.3915t-0.621,0.2835q-0.567,0.243-1.35,0.243z M62.69236,25.506l3.888-0.054q0.081,0.054,0.081,0.081q0,0.243-3.3615,0.675t-3.6315,0.513q-0.513,0.459-1.89,2.7405t-1.377,3.3345q0,0.999,1.377,0.999q0.648,0,1.701-0.405t1.62-0.756q1.512-0.945,3.24-2.781q0.378-0.378,0.513-0.378q0.081,0,0.081,0.162t-0.405,0.648q-1.404,1.728-3.159,2.781q-2.106,1.296-4.023,1.296q-0.837,0-1.3635-0.3645t-0.5265-1.4715t0.972-3.0375t1.485-2.8755q-0.378,0.081-0.648,0.081q-0.783,0-0.783-0.621q0-0.459,0.648-0.648q0.081,0,0.243-0.027l1.566,0q0.486-0.621,1.107-1.431q0.756-0.972,1.026-0.972t0.675,0.216t0.405,0.513t-1.296,1.755q0.702,0.027,1.836,0.027z M71.25595,34.092q-1.593,0-1.593-1.863q0-1.053,0.7425-2.3355t1.8225-3.0105q-3.456,1.728-6.264,5.103q-1.566,2.349-1.836,2.349q-0.783,0-0.783-0.459q0-0.243,0.324-0.864q2.619-4.671,3.969-6.831q3.213-5.157,4.536-5.589q0.054-0.027,0.108-0.027q0.351,0,0.486,0.567q-0.081,0.567-2.808,4.104q-2.835,3.591-3.213,4.698q0.999-0.729,3.483-2.457q2.673-1.863,3.537-1.863t0.864,0.675q0,0.108-0.0135,0.1485t-1.8765,2.5515t-1.863,3.699q0,0.621,0.459,0.621q1.458-0.054,4.374-3.51q0.243-0.243,0.3645-0.243t0.1215,0.162q0,0.54-2.673,2.916q-1.674,1.458-2.268,1.458z"/><path fill="#" d=""/></svg>